<svg width="118" height="182" viewBox="0 0 118 182" fill="none"
    xmlns="http://www.w3.org/2000/svg">
    <path d="M33.89 94.45C33.89 65.77 63.3501 60.78 63.3501 52.62C63.3501 49.46 61.2501 47.1 53.0901 47.1C46.2501 47.1 36.7801 51.3 30.2101 58.1L0.740112 24.17C16.0001 7.85998 38.62 0.22998 59.14 0.22998C94.66 0.22998 117.02 16.54 117.02 42.58C117.02 79.68 79.66 82.31 79.66 100.2C79.66 104.67 81.2401 108.35 82.5601 109.93L40.9901 119.4C36.7801 113.66 33.89 104.97 33.89 94.45ZM32.5701 153.38C32.6685 145.945 35.6659 138.842 40.9238 133.584C46.1818 128.326 53.2848 125.328 60.7201 125.23C68.1553 125.328 75.2584 128.326 80.5164 133.584C85.7743 138.842 88.7717 145.945 88.8701 153.38C88.7717 160.815 85.7743 167.918 80.5164 173.176C75.2584 178.434 68.1553 181.432 60.7201 181.53C53.2848 181.432 46.1818 178.434 40.9238 173.176C35.6659 167.918 32.6685 160.815 32.5701 153.38Z" fill="black"/>
</svg>
